<svg width="606" height="106" xmlns="http://www.w3.org/2000/svg" class="roots-wrapper">
 <metadata id="metadata62">image/svg+xml</metadata>

 <g>
  <title>background</title>
  <rect fill="none" id="canvas_background" height="108" width="608" y="-1" x="-1"/>
 </g>
 <g>
  <title>Layer 1</title>
  <g id="svg_26">
   <svg viewBox="-5 -5 326.292 442.38" height="97px" width="70.96px" y="4.3" x="5.22" preserveAspectRatio="xMinYMin" id="svg_1">
    <path class="cls-1" d="m229.36,201.21s0,0.04 0,0z" fill="#c31818" id="svg_25"/>
    <path class="cls-1" d="m316.25,249.75l0,18.46l-0.22,13.3a158.26,158.26 0 0 1 -27.93,82.1a158.26,158.26 0 0 0 27.9,-82.1l0.22,-13.3l0,-18.46a20.81,20.81 0 0 0 -29.56,-18.9a20.81,20.81 0 0 1 29.56,18.9l0.03,0z" fill="#c31818" id="svg_24"/>
    <path class="cls-1" d="m273.14,201.16a1.86,1.86 0 0 1 0,-0.33a1.86,1.86 0 0 0 0,0.33z" fill="#c31818" id="svg_23"/>
    <path class="cls-1" d="m261.76,291.67a22.63,22.63 0 0 1 -19.59,0a22.63,22.63 0 0 0 19.59,0z" fill="#c31818" id="svg_22"/>
    <path class="cls-1" d="m316.29,201.16a67,67 0 0 0 -6.37,-29.06a67,67 0 0 1 6.37,29.06z" fill="#c31818" id="svg_21"/>
    <path class="cls-1" d="m229.36,202.26c0,-0.37 -0.08,-0.72 -0.1,-1.09c0.02,0.37 0.1,0.72 0.1,1.09z" fill="#c31818" id="svg_20"/>
    <path class="cls-1" d="m268.19,186.57a21.89,21.89 0 0 1 5,14a21.84,21.84 0 0 0 -5,-14z" fill="#c31818" id="svg_19"/>
    <path class="cls-2" d="m60.49,210.79a10.39,10.39 0 0 1 -12.87,3.15a10.39,10.39 0 0 0 12.87,-3.15z" fill="#f15f61" id="svg_18"/>
    <path class="cls-3" d="m41.71,195.08l0.14,-6.65l-0.14,0.23l0,6.42z" fill="#f17373" id="svg_17"/>
    <path class="cls-4" fill="none" d="m187.68,201.16l0.08,0l-0.08,0z" id="svg_16"/>
    <path class="cls-4" d="m242.17,291.67a22.62,22.62 0 0 1 -12.81,-20.39a22.62,22.62 0 0 0 12.81,20.39z" fill="none" id="svg_15"/>
    <path class="cls-4" d="m286.69,230.85a20.81,20.81 0 0 0 -12.12,18.9a20.81,20.81 0 0 1 12.12,-18.9z" fill="none" id="svg_14"/>
    <path class="cls-4" d="m273.21,200.54a2.58,2.58 0 0 1 0,0.29a2.58,2.58 0 0 0 0,-0.29z" fill="none" id="svg_13"/>
    <path class="cls-4" fill="none" d="m229.26,201.17l0.09,0l-0.09,0z" id="svg_12"/>
    <path class="cls-4" d="m251.63,136.51c25.67,0 47.85,13.73 58.29,35.59c-10.44,-21.86 -32.62,-35.6 -58.29,-35.6a63.6,63.6 0 0 0 -57.71,36.63a63.59,63.59 0 0 1 57.71,-36.62z" fill="none" id="svg_11"/>
    <path class="cls-4" d="m273.21,201.16a21.54,21.54 0 1 0 43.08,0a21.54,21.54 0 1 1 -43.08,0z" fill="none" id="svg_10"/>
    <path class="cls-4" d="m251.25,178.58c-12.13,0 -21.89,10.46 -21.89,22.59c0,-12.13 9.76,-22.59 21.89,-22.59a21.9,21.9 0 0 1 16.94,8a21.9,21.9 0 0 0 -16.94,-8z" fill="none" id="svg_9"/>
    <path class="cls-4" d="m274.57,271.29a22.62,22.62 0 0 1 -12.81,20.39a22.61,22.61 0 0 0 12.81,-20.39z" fill="none" id="svg_8"/>
    <path class="cls-2" d="m47.62,213.94a10.41,10.41 0 0 1 -5.91,-9.38a10.41,10.41 0 0 0 5.91,9.38z" fill="#f15f61" id="svg_7"/>
    <path class="cls-2" d="m62.57,204.56a10.37,10.37 0 0 1 -2.08,6.23a10.37,10.37 0 0 0 2.08,-6.23z" fill="#f15f61" id="svg_6"/>
    <path class="cls-2" d="m205.4,424.89l-1.42,0c-111,5.71 -99.72,-236.75 -99.72,-236.75l0,-146.45a21.06,21.06 0 0 0 -0.18,-2.65a20.82,20.82 0 0 0 -7.08,-13.13l-0.35,-0.32c-0.07,-0.07 -0.16,-0.12 -0.23,-0.18a20.84,20.84 0 0 0 -21.15,-2.95l-0.27,0.14c-0.52,0.23 -1,0.47 -1.54,0.74l-0.21,0.13a20.83,20.83 0 0 0 -10.68,18.22l0,162.87a10.43,10.43 0 0 1 -20.86,0l0,-9.48l-0.08,3.92c0,8.29 -7.12,167.39 62.73,218.24a79.44,79.44 0 0 0 37.31,14.76c5.13,0.26 10.29,0.38 15.45,0.38a159.6,159.6 0 0 0 32.58,-3.38a157.94,157.94 0 0 0 15.7,-4.11z" fill="#f15f61" id="svg_5"/>
    <path class="cls-5" d="m146,0a20.82,20.82 0 0 0 -20.85,20.85l0,183.7a10.25,10.25 0 0 1 -0.42,2.89l0,0.21l-0.06,0.15a10.42,10.42 0 0 1 -9.91,7.17c-10.68,0 -10.74,-11.28 -10.74,-11.28s-11.02,226.88 99.98,221.17l1.42,0c22.58,-7.18 44.24,-19.68 59.92,-35l-3.18,2.49c-89.56,65.3 -95.33,-199.53 -95.33,-199.53l0,-172a20.84,20.84 0 0 0 -20.83,-20.82z" fill="#da3030" id="svg_4"/>
    <path class="cls-3" d="m104.36,417.23c-69.85,-50.85 -62.73,-209.95 -62.73,-218.23l0.08,-3.91l0,-99.45a20.85,20.85 0 0 0 -41.71,-0.13l0,152.83c0,108.66 37.44,155.12 86.86,173.38c17.14,6.35 35.81,9.28 54.81,10.28a79.44,79.44 0 0 1 -37.31,-14.77z" fill="#f17373" id="svg_3"/>
    <path class="cls-1" d="m294.75,222.71a21.54,21.54 0 0 0 21.54,-21.55a67,67 0 0 0 -6.37,-29.06c-10.44,-21.86 -32.62,-35.59 -58.29,-35.59a63.59,63.59 0 0 0 -57.71,36.62c-4,8.48 -5.29,16.78 -6.27,31.43c-0.1,1.49 -0.56,10.42 -10.41,10.42c-5.45,0 -10,-6.93 -10,-10.73c0,0 5.34,253.44 94.9,188.14l3.18,-2.49a160,160 0 0 0 22.78,-26.29a158.26,158.26 0 0 0 27.9,-82.1l0.22,-13.3l0,-18.46a20.84,20.84 0 0 0 -41.68,0l0,21.53a22.61,22.61 0 1 1 -45.21,0l0,-69c0,-0.37 -0.08,-0.72 -0.1,-1.09l0.09,0c0,-12.13 9.76,-22.59 21.89,-22.59a22,22 0 0 1 22,22a2.58,2.58 0 0 1 0,0.29a1.86,1.86 0 0 0 0,0.33l0.07,0a21.54,21.54 0 0 0 21.47,21.49z" fill="#c31818" id="svg_2"/>
   </svg>
  </g>
  <svg x="92" y="45.56" viewBox="4.9 15.1 488.6 42.72" height="42.72px" width="488.6px" id="svg_27">
   <path d="m51.45,57.11l-8.97,0l-0.06,-24.78l-12.15,20.42l-4.31,0l-12.09,-19.89l0,24.25l-8.97,0l0,-41.3l7.9,0l15.46,25.67l15.22,-25.67l7.85,0l0.12,41.3zm38.24,-15.75q0,0.18 -0.18,2.48l-24.01,0q0.65,2.95 3.06,4.66q2.42,1.71 6.02,1.71q2.48,0 4.4,-0.74q1.92,-0.74 3.57,-2.33l4.89,5.31q-4.48,5.13 -13.09,5.13q-5.37,0 -9.5,-2.09t-6.37,-5.81q-2.25,-3.72 -2.25,-8.44q0,-4.66 2.22,-8.41q2.21,-3.74 6.07,-5.84q3.87,-2.09 8.65,-2.09q4.66,0 8.43,2q3.78,2.01 5.93,5.76q2.16,3.74 2.16,8.7zm-16.46,-9.5q-3.13,0 -5.26,1.77q-2.12,1.77 -2.59,4.84l15.63,0q-0.47,-3.01 -2.59,-4.81q-2.13,-1.8 -5.19,-1.8zm61.24,-6.96q5.96,0 9.47,3.51q3.51,3.51 3.51,10.53l0,18.17l-9.2,0l0,-16.75q0,-3.78 -1.56,-5.64q-1.57,-1.86 -4.46,-1.86q-3.24,0 -5.13,2.1q-1.89,2.09 -1.89,6.22l0,15.93l-9.2,0l0,-16.75q0,-7.5 -6.02,-7.5q-3.19,0 -5.08,2.1q-1.88,2.09 -1.88,6.22l0,15.93l-9.21,0l0,-31.74l8.79,0l0,3.66q1.77,-2.01 4.34,-3.07t5.63,-1.06q3.37,0 6.08,1.33q2.72,1.32 4.37,3.86q1.94,-2.48 4.92,-3.84q2.98,-1.35 6.52,-1.35zm50.69,16.46q0,0.18 -0.18,2.48l-24.01,0q0.65,2.95 3.07,4.66t6.02,1.71q2.47,0 4.39,-0.74q1.92,-0.74 3.57,-2.33l4.9,5.31q-4.49,5.13 -13.1,5.13q-5.37,0 -9.5,-2.09t-6.37,-5.81q-2.24,-3.72 -2.24,-8.44q0,-4.66 2.21,-8.41q2.21,-3.74 6.08,-5.84q3.86,-2.09 8.64,-2.09q4.66,0 8.44,2q3.77,2.01 5.93,5.76q2.15,3.74 2.15,8.7zm-16.46,-9.5q-3.13,0 -5.25,1.77q-2.13,1.77 -2.6,4.84l15.64,0q-0.47,-3.01 -2.6,-4.81q-2.12,-1.8 -5.19,-1.8zm63.85,16.05l0,-12.1l8.73,0l0,16.76q-3.36,2.54 -7.79,3.89q-4.42,1.36 -8.91,1.36q-6.43,0 -11.56,-2.74q-5.13,-2.75 -8.05,-7.61q-2.92,-4.87 -2.92,-11.01q0,-6.13 2.92,-11t8.11,-7.61q5.19,-2.75 11.68,-2.75q5.43,0 9.85,1.83q4.43,1.83 7.44,5.31l-6.14,5.67q-4.42,-4.66 -10.68,-4.66q-3.95,0 -7.02,1.65q-3.07,1.65 -4.78,4.66q-1.71,3.01 -1.71,6.9q0,3.84 1.71,6.85q1.71,3 4.75,4.69q3.04,1.68 6.94,1.68q4.13,0 7.43,-1.77zm46.03,-6.55q0,0.18 -0.18,2.48l-24.01,0q0.64,2.95 3.06,4.66t6.02,1.71q2.48,0 4.4,-0.74q1.91,-0.74 3.57,-2.33l4.89,5.31q-4.48,5.13 -13.09,5.13q-5.37,0 -9.5,-2.09t-6.38,-5.81q-2.24,-3.72 -2.24,-8.44q0,-4.66 2.21,-8.41q2.22,-3.74 6.08,-5.84q3.87,-2.09 8.65,-2.09q4.66,0 8.43,2q3.78,2.01 5.93,5.76q2.16,3.74 2.16,8.7zm-16.47,-9.5q-3.12,0 -5.25,1.77q-2.12,1.77 -2.59,4.84l15.63,0q-0.47,-3.01 -2.59,-4.81q-2.13,-1.8 -5.2,-1.8zm39.89,-6.96q5.9,0 9.53,3.54q3.63,3.54 3.63,10.5l0,18.17l-9.2,0l0,-16.75q0,-3.78 -1.65,-5.64q-1.66,-1.86 -4.78,-1.86q-3.48,0 -5.55,2.16q-2.06,2.15 -2.06,6.4l0,15.69l-9.21,0l0,-31.74l8.79,0l0,3.72q1.83,-2.01 4.55,-3.1q2.71,-1.09 5.95,-1.09zm50.93,16.46q0,0.18 -0.18,2.48l-24.01,0q0.65,2.95 3.07,4.66q2.41,1.71 6.01,1.71q2.48,0 4.4,-0.74q1.92,-0.74 3.57,-2.33l4.9,5.31q-4.49,5.13 -13.1,5.13q-5.37,0 -9.5,-2.09t-6.37,-5.81q-2.25,-3.72 -2.25,-8.44q0,-4.66 2.22,-8.41q2.21,-3.74 6.07,-5.84q3.87,-2.09 8.65,-2.09q4.66,0 8.43,2q3.78,2.01 5.93,5.76q2.16,3.74 2.16,8.7zm-16.46,-9.5q-3.13,0 -5.25,1.77q-2.13,1.77 -2.6,4.84l15.63,0q-0.47,-3.01 -2.59,-4.81q-2.13,-1.8 -5.19,-1.8zm29.38,-2.3q1.66,-2.3 4.46,-3.48q2.8,-1.18 6.46,-1.18l0,8.49q-1.53,-0.11 -2.07,-0.11q-3.95,0 -6.19,2.21t-2.24,6.64l0,14.98l-9.21,0l0,-31.74l8.79,0l0,4.19zm27.03,-4.66q7.38,0 11.33,3.51t3.95,10.59l0,18.11l-8.61,0l0,-3.95q-2.6,4.42 -9.68,4.42q-3.65,0 -6.34,-1.24q-2.68,-1.23 -4.1,-3.42q-1.42,-2.18 -1.42,-4.95q0,-4.43 3.34,-6.96q3.33,-2.54 10.29,-2.54l7.32,0q0,-3.01 -1.83,-4.63q-1.83,-1.63 -5.49,-1.63q-2.53,0 -4.98,0.8q-2.45,0.8 -4.16,2.15l-3.31,-6.43q2.6,-1.83 6.23,-2.83q3.63,-1 7.46,-1zm-0.71,26.49q2.36,0 4.19,-1.09q1.83,-1.09 2.6,-3.22l0,-3.24l-6.31,0q-5.67,0 -5.67,3.71q0,1.77 1.39,2.81q1.38,1.03 3.8,1.03zm40.31,-2.3l2.48,6.49q-1.36,1 -3.34,1.5q-1.97,0.5 -4.16,0.5q-5.66,0 -8.76,-2.89q-3.1,-2.89 -3.1,-8.49l0,-13.04l-4.89,0l0,-7.08l4.89,0l0,-7.73l9.21,0l0,7.73l7.9,0l0,7.08l-7.9,0l0,12.92q0,2.01 1.03,3.1q1.03,1.09 2.92,1.09q2.18,0 3.72,-1.18zm19.77,8.49q-5.02,0 -9,-2.09q-3.98,-2.09 -6.22,-5.81q-2.25,-3.72 -2.25,-8.44q0,-4.72 2.25,-8.44q2.24,-3.71 6.22,-5.81q3.98,-2.09 9,-2.09q5.01,0 8.97,2.09q3.95,2.1 6.19,5.81q2.24,3.72 2.24,8.44q0,4.72 -2.24,8.44q-2.24,3.72 -6.19,5.81q-3.96,2.09 -8.97,2.09zm0,-7.55q3.54,0 5.81,-2.39q2.27,-2.39 2.27,-6.4t-2.27,-6.4q-2.27,-2.39 -5.81,-2.39q-3.54,0 -5.84,2.39t-2.3,6.4q0,4.01 2.3,6.4q2.3,2.39 5.84,2.39zm30.33,-20.47q1.65,-2.3 4.45,-3.48q2.81,-1.18 6.47,-1.18l0,8.49q-1.54,-0.11 -2.07,-0.11q-3.95,0 -6.19,2.21q-2.25,2.21 -2.25,6.64l0,14.98l-9.2,0l0,-31.74l8.79,0l0,4.19z" fill="#c31818" id="svg_28"/>
  </svg>
 </g>
</svg>